<svg width="80" height="46" viewBox="0 0 80 46" fill="none" xmlns="http://www.w3.org/2000/svg">
<path d="M40 9.04492C19.045 9.04492 1.84667 25.0916 0 45.5649H80C78.1533 25.0916 60.955 9.04492 40 9.04492ZM55.2983 30.6966C55.2983 28.8566 56.79 27.3649 58.63 27.3649C60.47 27.3649 61.9617 28.8566 61.9617 30.6966C61.9617 32.5366 60.47 34.0283 58.63 34.0283C56.79 34.0283 55.2983 32.5366 55.2983 30.6966ZM21.37 34.0283C19.53 34.0283 18.0383 32.5366 18.0383 30.6966C18.0383 28.8566 19.53 27.3649 21.37 27.3649C23.21 27.3649 24.7017 28.8566 24.7017 30.6966C24.7017 32.5366 23.21 34.0283 21.37 34.0283Z" fill="#30DC80"/>
<path d="M56.7302 17.7531C56.4969 17.7531 56.2619 17.6948 56.0469 17.5698C55.3919 17.1914 55.1686 16.3548 55.5452 15.6998L64.2069 0.686442C64.5852 0.0297754 65.4219 -0.195224 66.0769 0.184776C66.7319 0.563109 66.9552 1.39978 66.5786 2.05478L57.9169 17.0681C57.6636 17.5081 57.2036 17.7531 56.7302 17.7531Z" fill="#30DC80"/>
<path d="M23.2701 17.7531C22.7968 17.7531 22.3368 17.5064 22.0835 17.0681L13.4235 2.05478C13.0451 1.39978 13.2701 0.563109 13.9235 0.184776C14.5768 -0.195224 15.4151 0.0297754 15.7935 0.686442L24.4551 15.6998C24.8335 16.3564 24.6085 17.1931 23.9535 17.5698C23.7385 17.6948 23.5035 17.7531 23.2701 17.7531Z" fill="#30DC80"/>
</svg>
