<svg width="84" height="84" viewBox="0 0 84 84" fill="none" xmlns="http://www.w3.org/2000/svg">
<path d="M81.5486 21.03C81.4297 20.3853 81.1766 19.7728 80.8056 19.2323C80.4347 18.6918 79.9542 18.2353 79.3954 17.8925L67.0918 30.1962C66.5179 30.7916 65.8299 31.2652 65.0689 31.5886C64.3078 31.9121 63.4894 32.0788 62.6625 32.0788C61.8355 32.0788 61.0171 31.9121 60.256 31.5886C59.495 31.2652 58.807 30.7916 58.2331 30.1962L53.5577 26.0129C52.4306 24.863 51.7992 23.3169 51.7992 21.7067C51.7992 20.0964 52.4306 18.5503 53.5577 17.4004L65.8614 5.09671C65.5931 4.46637 65.1895 3.9027 64.6792 3.44559C64.169 2.98847 63.5645 2.64908 62.9085 2.45142C58.6156 1.59533 54.1686 1.96178 50.0737 3.50906C45.9789 5.05633 42.4007 7.72226 39.7467 11.2033C37.0926 14.6844 35.4692 18.8407 35.0614 23.1991C34.6536 27.5575 35.4777 31.9429 37.4399 35.8559L3.85094 69.1373C3.265 69.7102 2.79944 70.3944 2.48158 71.1498C2.16373 71.9051 2 72.7164 2 73.5358C2 74.3553 2.16373 75.1666 2.48158 75.9219C2.79944 76.6773 3.265 77.3615 3.85094 77.9344L6.0656 80.1491C6.63852 80.735 7.32275 81.2006 8.07809 81.5184C8.83343 81.8363 9.64466 82 10.4642 82C11.2836 82 12.0949 81.8363 12.8502 81.5184C13.6056 81.2006 14.2898 80.735 14.8627 80.1491L48.4517 46.6216C52.3658 48.4864 56.7204 49.229 61.0313 48.7669C65.3421 48.3047 69.4404 46.6559 72.8702 44.0039C76.3001 41.3518 78.9271 37.8004 80.4592 33.7445C81.9913 29.6887 82.3684 25.2873 81.5486 21.03V21.03Z" stroke="white" stroke-width="4" stroke-linecap="round" stroke-linejoin="round"/>
</svg>
