<svg width="36" height="36" viewBox="0 0 36 36" fill="none" xmlns="http://www.w3.org/2000/svg">
<path d="M4.46154 6.92285C3.8087 6.92285 3.1826 7.18219 2.72097 7.64382C2.25934 8.10546 2 8.73156 2 9.38441V31.5384C2 32.1913 2.25934 32.8174 2.72097 33.279C3.1826 33.7406 3.8087 34 4.46154 34H31.5385C32.1913 34 32.8174 33.7406 33.279 33.279C33.7407 32.8174 34 32.1913 34 31.5384V9.38441C34 8.73156 33.7407 8.10546 33.279 7.64382C32.8174 7.18219 32.1913 6.92285 31.5385 6.92285H26.6154" stroke="white" stroke-width="2.2" stroke-linecap="round" stroke-linejoin="round"/>
<path d="M9.38477 2V11.8462" stroke="white" stroke-width="2.2" stroke-linecap="round" stroke-linejoin="round"/>
<path d="M26.6152 2V11.8462" stroke="white" stroke-width="2.2" stroke-linecap="round" stroke-linejoin="round"/>
<path d="M9.38477 6.92285H21.6925" stroke="white" stroke-width="2.2" stroke-linecap="round" stroke-linejoin="round"/>
<path d="M9.38458 20.4616C10.0643 20.4616 10.6153 19.9105 10.6153 19.2308C10.6153 18.551 10.0643 18 9.38458 18C8.70484 18 8.15381 18.551 8.15381 19.2308C8.15381 19.9105 8.70484 20.4616 9.38458 20.4616Z" fill="white" stroke="white" stroke-width="2.2" stroke-linecap="round" stroke-linejoin="round"/>
<path d="M17.9998 20.4616C18.6795 20.4616 19.2306 19.9105 19.2306 19.2308C19.2306 18.551 18.6795 18 17.9998 18C17.3201 18 16.769 18.551 16.769 19.2308C16.769 19.9105 17.3201 20.4616 17.9998 20.4616Z" fill="white" stroke="white" stroke-width="2.2" stroke-linecap="round" stroke-linejoin="round"/>
<path d="M26.6155 20.4616C27.2953 20.4616 27.8463 19.9105 27.8463 19.2308C27.8463 18.551 27.2953 18 26.6155 18C25.9358 18 25.3848 18.551 25.3848 19.2308C25.3848 19.9105 25.9358 20.4616 26.6155 20.4616Z" fill="white" stroke="white" stroke-width="2.2" stroke-linecap="round" stroke-linejoin="round"/>
<path d="M9.38458 27.8463C10.0643 27.8463 10.6153 27.2953 10.6153 26.6155C10.6153 25.9358 10.0643 25.3848 9.38458 25.3848C8.70484 25.3848 8.15381 25.9358 8.15381 26.6155C8.15381 27.2953 8.70484 27.8463 9.38458 27.8463Z" fill="white" stroke="white" stroke-width="2.2" stroke-linecap="round" stroke-linejoin="round"/>
</svg>
