<svg width="69" height="64" viewBox="0 0 69 64" fill="none" xmlns="http://www.w3.org/2000/svg">
<path d="M62 17H7C4.23858 17 2 19.2386 2 22V57C2 59.7614 4.23858 62 7 62H62C64.7614 62 67 59.7614 67 57V22C67 19.2386 64.7614 17 62 17Z" stroke="white" stroke-width="4" stroke-linecap="round" stroke-linejoin="round"/>
<path d="M2 37H67" stroke="white" stroke-width="4" stroke-linecap="round" stroke-linejoin="round"/>
<path d="M34.5 32V42" stroke="white" stroke-width="4" stroke-linecap="round" stroke-linejoin="round"/>
<path d="M49.5 17C49.5 13.0218 47.9196 9.20644 45.1066 6.3934C42.2936 3.58035 38.4782 2 34.5 2V2C30.5218 2 26.7064 3.58035 23.8934 6.3934C21.0804 9.20644 19.5 13.0218 19.5 17" stroke="white" stroke-width="4" stroke-linecap="round" stroke-linejoin="round"/>
</svg>
