<svg width="80" height="80" viewBox="0 0 80 80" fill="none" xmlns="http://www.w3.org/2000/svg">
<g clip-path="url(#clip0_430_576)">
<path d="M26.6668 79.9997C34.0268 79.9997 40.0002 74.0263 40.0002 66.6663V53.333H26.6668C19.3068 53.333 13.3335 59.3063 13.3335 66.6663C13.3335 74.0263 19.3068 79.9997 26.6668 79.9997Z" fill="#0ACF83"/>
<path d="M13.3335 40.0003C13.3335 32.6403 19.3068 26.667 26.6668 26.667H40.0002V53.3337H26.6668C19.3068 53.3337 13.3335 47.3603 13.3335 40.0003Z" fill="#A259FF"/>
<path d="M13.3335 13.3333C13.3335 5.97333 19.3068 0 26.6668 0H40.0002V26.6667H26.6668C19.3068 26.6667 13.3335 20.6933 13.3335 13.3333Z" fill="#F24E1E"/>
<path d="M40 0H53.3333C60.6933 0 66.6667 5.97333 66.6667 13.3333C66.6667 20.6933 60.6933 26.6667 53.3333 26.6667H40V0Z" fill="#FF7262"/>
<path d="M66.6667 40.0003C66.6667 47.3603 60.6933 53.3337 53.3333 53.3337C45.9733 53.3337 40 47.3603 40 40.0003C40 32.6403 45.9733 26.667 53.3333 26.667C60.6933 26.667 66.6667 32.6403 66.6667 40.0003Z" fill="#1ABCFE"/>
</g>
<defs>
<clipPath id="clip0_430_576">
<rect width="80" height="80" fill="white"/>
</clipPath>
</defs>
</svg>
