<svg width="80" height="80" viewBox="0 0 80 80" fill="none" xmlns="http://www.w3.org/2000/svg">
<path d="M22.2222 80H57.7778C70.0511 80 80 70.0511 80 57.7778V22.2222C80 9.94889 70.0511 0 57.7778 0H22.2222C9.94889 0 0 9.94889 0 22.2222V57.7778C0 70.0511 9.94889 80 22.2222 80Z" fill="#ECEFF1"/>
<path d="M15.0732 26.6094C14.6241 26.6094 14.1934 26.7878 13.8758 27.1053C13.5583 27.4229 13.3799 27.8536 13.3799 28.3027C13.3799 28.7518 13.5583 29.1825 13.8758 29.5001C14.1934 29.8176 14.6241 29.996 15.0732 29.996C15.5223 29.996 15.953 29.8176 16.2706 29.5001C16.5881 29.1825 16.7665 28.7518 16.7665 28.3027C16.7665 27.8536 16.5881 27.4229 16.2706 27.1053C15.953 26.7878 15.5223 26.6094 15.0732 26.6094Z" fill="#FFC107"/>
<path d="M22.1822 35.1332L25.3911 33.7777C26.9022 31.0666 29.4688 29.4955 32.7955 29.4955C33.5511 29.4955 34.2599 29.591 34.9333 29.7466L37.9822 28.4599C36.4799 27.7199 34.7577 27.291 32.7955 27.291C27.4844 27.291 23.6955 30.2088 22.1822 35.1332ZM16.2155 37.6532V34.1666H13.9399V38.6155L16.2155 37.6532Z" fill="#FF5722"/>
<path d="M16.2155 43.8507V37.6529L13.9399 38.6151V44.8107L16.2155 43.8507ZM23.8711 40.3285C23.8711 37.7307 24.4177 35.5218 25.3911 33.7773L22.1822 35.1329C21.7066 36.6796 21.4422 38.4129 21.4422 40.3285C21.4422 40.7751 21.5044 41.1773 21.5311 41.604L23.8911 40.6062C23.8888 40.5107 23.8711 40.4262 23.8711 40.3285ZM54.2688 27.7773C53.6488 27.9685 53.0755 28.2107 52.5488 28.504L54.2688 27.7773ZM37.9822 28.4596L34.9333 29.7462C37.2155 30.2729 38.9955 31.664 40.1555 33.7373L42.4266 32.7773C41.3866 30.8396 39.8688 29.3907 37.9822 28.4596Z" fill="#F44336"/>
<path d="M16.2155 50.0473V43.8517L13.9399 44.8117V51.0073L16.2155 50.0473ZM54.2688 27.7784L52.5488 28.5051C50.3644 29.7206 49.0444 31.7584 49.0444 34.2384C49.0444 34.9095 49.1466 35.5073 49.3044 36.0717L51.5977 35.1029C51.5222 34.8095 51.4733 34.5029 51.4733 34.1695C51.4733 31.4429 53.9555 29.4651 57.5488 29.4651C59.3177 29.4651 60.8088 29.9384 61.8999 30.7517L64.2288 29.7673C62.6866 28.2473 60.3733 27.294 57.6199 27.294C56.4022 27.2917 55.2799 27.4673 54.2688 27.7784ZM23.8888 40.6095L21.5288 41.6073C21.6599 43.7384 22.1066 45.6317 22.8555 47.2429L25.0866 46.3006C24.3422 44.714 23.9244 42.8006 23.8888 40.6095ZM42.4266 32.7806L40.1555 33.7406C41.0022 35.2562 41.4955 37.1451 41.6177 39.3184L43.9755 38.3229C43.7666 36.2162 43.2599 34.3384 42.4266 32.7806Z" fill="#E91E63"/>
<path d="M43.5755 44.6846C43.8999 43.3469 44.1133 41.9135 44.1133 40.3291C44.1133 39.6269 44.0399 38.9758 43.9733 38.3202L41.6155 39.3158C41.6355 39.6558 41.6822 39.9735 41.6822 40.3291C41.6822 42.4802 41.2888 44.3491 40.6133 45.9358L43.5755 44.6846ZM25.0888 46.298L22.8577 47.2402C23.7644 49.1935 25.0977 50.7246 26.8066 51.7691L29.6022 50.5891C27.5999 49.838 26.0599 48.3646 25.0888 46.298ZM16.2155 50.0469L13.9399 51.0069V52.8646H16.2155V50.0469ZM51.5999 35.1002L49.3066 36.0691C49.8511 37.9935 51.3399 39.338 54.0377 40.2669L57.5933 38.7647L56.8422 38.5758C53.6044 37.7669 52.0133 36.7269 51.5999 35.1002ZM63.8199 33.9402H66.2155C66.1044 32.3158 65.3733 30.8891 64.2311 29.7646L61.9022 30.7491C62.9511 31.5313 63.6333 32.6313 63.8199 33.9402Z" fill="#9C27B0"/>
<path d="M43.5753 44.6834L40.6131 45.9345C39.2153 49.2145 36.502 51.179 32.7931 51.179C31.6198 51.179 30.5686 50.9501 29.5998 50.5856L26.8042 51.7656C28.4753 52.7856 30.4664 53.3834 32.7931 53.3834C38.4442 53.3834 42.2642 50.0901 43.5753 44.6834ZM50.7286 46.3523H48.3331C48.3909 47.1701 48.6153 47.919 48.9198 48.6212L51.1175 47.6923C50.9309 47.2723 50.7842 46.8301 50.7286 46.3523ZM59.322 39.2012L57.5909 38.7656L54.0353 40.2678C54.5553 40.4478 55.1175 40.6145 55.7286 40.7656L58.5931 41.4945C60.1798 41.8856 61.3864 42.3812 62.2798 42.9812L64.9575 41.8501C63.7842 40.7056 61.9509 39.8523 59.322 39.2012Z" fill="#3F51B5"/>
<path d="M51.1177 47.695L48.9199 48.6239C49.7577 50.5573 51.451 52.0261 53.7333 52.7861L57.4933 51.1995C54.4288 51.1261 52.0333 49.7684 51.1177 47.695ZM66.4755 47.4061C66.5533 46.9773 66.6155 46.5395 66.6155 46.0773C66.6155 44.335 66.0955 42.9573 64.9599 41.8506L62.2821 42.9817C63.5688 43.8484 64.1844 44.9439 64.1844 46.3373C64.1844 47.2106 63.8933 48.0039 63.411 48.6995L66.4755 47.4061Z" fill="#03A9F4"/>
<path d="M66.4754 47.4062L63.4109 48.7018C62.362 50.2174 60.3131 51.2174 57.7442 51.2174C57.6576 51.2174 57.5798 51.204 57.4954 51.2018L53.7354 52.7885C54.8776 53.1685 56.1487 53.3863 57.5354 53.3863C62.4398 53.384 65.8109 51.0307 66.4754 47.4062Z" fill="#009688"/>
</svg>
