<svg width="48" height="84" viewBox="0 0 48 84" fill="none" xmlns="http://www.w3.org/2000/svg">
<path d="M23.5386 26.6157C30.336 26.6157 35.8463 21.1053 35.8463 14.3079C35.8463 7.51042 30.336 2 23.5386 2C16.7413 2 11.231 7.51042 11.231 14.3079C11.231 21.1053 16.7413 26.6157 23.5386 26.6157Z" stroke="white" stroke-width="4" stroke-linecap="round" stroke-linejoin="round"/>
<path d="M45.0769 48.153C45.0769 42.4406 42.8077 36.9621 38.7685 32.9228C34.7292 28.8835 29.2508 26.6143 23.5385 26.6143C17.8261 26.6143 12.3477 28.8835 8.30847 32.9228C4.26923 36.9621 2 42.4406 2 48.153V57.3839H11.2308L14.3077 81.9997H32.7692L35.8462 57.3839H45.0769V48.153Z" stroke="white" stroke-width="4" stroke-linecap="round" stroke-linejoin="round"/>
</svg>
