<svg width="48" height="84" viewBox="0 0 48 84" fill="none" xmlns="http://www.w3.org/2000/svg">
<path d="M23.5391 26.6158C30.3365 26.6158 35.8468 21.1054 35.8468 14.3079C35.8468 7.51044 30.3365 2 23.5391 2C16.7418 2 11.2314 7.51044 11.2314 14.3079C11.2314 21.1054 16.7418 26.6158 23.5391 26.6158Z" stroke="white" stroke-width="4" stroke-linecap="round" stroke-linejoin="round"/>
<path d="M45.0769 48.1541C45.0769 42.4416 42.8077 36.9631 38.7685 32.9238C34.7292 28.8845 29.2508 26.6152 23.5385 26.6152C17.8261 26.6152 12.3477 28.8845 8.30847 32.9238C4.26923 36.9631 2 42.4416 2 48.1541V57.385H11.2308L14.3077 82.0009H32.7692L35.8462 57.385H45.0769V48.1541Z" stroke="white" stroke-width="4" stroke-linecap="round" stroke-linejoin="round"/>
</svg>
