<svg width="24" height="33" viewBox="0 0 24 33" fill="none" xmlns="http://www.w3.org/2000/svg">
<path d="M22.5714 12.2857C22.5714 17.9771 12.2857 31.7143 12.2857 31.7143C12.2857 31.7143 2 17.9771 2 12.2857C2 9.55777 3.08367 6.94156 5.01262 5.01262C6.94156 3.08367 9.55777 2 12.2857 2C15.0137 2 17.6299 3.08367 19.5588 5.01262C21.4878 6.94156 22.5714 9.55777 22.5714 12.2857V12.2857Z" stroke="white" stroke-width="2.2" stroke-linecap="round" stroke-linejoin="round"/>
<path d="M12.2855 15.7146C14.1791 15.7146 15.7141 14.1795 15.7141 12.286C15.7141 10.3924 14.1791 8.85742 12.2855 8.85742C10.392 8.85742 8.85693 10.3924 8.85693 12.286C8.85693 14.1795 10.392 15.7146 12.2855 15.7146Z" stroke="white" stroke-width="2.2" stroke-linecap="round" stroke-linejoin="round"/>
</svg>
