<svg width="80" height="91" viewBox="0 0 80 91" fill="none" xmlns="http://www.w3.org/2000/svg">
<path d="M40 90.2122C38.783 90.2126 37.5873 89.8926 36.5332 89.2843L25.5014 82.7534C23.855 81.832 24.6573 81.5066 25.2018 81.3165C26.9528 80.7755 28.6294 80.0179 30.1925 79.0611C30.3234 79.0006 30.4675 78.9745 30.6113 78.9852C30.755 78.9959 30.8937 79.0431 31.0141 79.1224L39.4909 84.1582C39.6488 84.2417 39.8247 84.2854 40.0032 84.2854C40.1818 84.2854 40.3577 84.2417 40.5155 84.1582L73.5723 65.0781C73.727 64.9854 73.8549 64.8541 73.9436 64.6971C74.0323 64.5401 74.0786 64.3627 74.0781 64.1824V26.0157C74.0782 25.8325 74.0312 25.6523 73.9414 25.4926C73.8517 25.3329 73.7224 25.199 73.5658 25.1039L40.5091 6.03982C40.3532 5.95203 40.1773 5.90591 39.9984 5.90591C39.8195 5.90591 39.6436 5.95203 39.4877 6.03982L6.45028 25.1103C6.29269 25.2035 6.16184 25.3358 6.0704 25.4944C5.97896 25.653 5.93002 25.8326 5.92833 26.0157V64.1663C5.92879 64.3462 5.97706 64.5227 6.06821 64.6779C6.15936 64.833 6.29011 64.9611 6.44706 65.0491L15.5135 70.2814C20.4269 72.7365 23.4362 69.8433 23.4362 66.9371V29.2698C23.4362 29.0134 23.538 28.7676 23.7193 28.5863C23.9006 28.405 24.1464 28.3032 24.4028 28.3032H28.5912C28.8476 28.3032 29.0934 28.405 29.2747 28.5863C29.456 28.7676 29.5578 29.0134 29.5578 29.2698V66.9403C29.5578 73.4969 25.9879 77.2504 19.7697 77.2504C17.087 77.2972 14.4465 76.5798 12.1563 75.182L3.4668 70.1977C2.4119 69.5834 1.53661 68.7031 0.928279 67.6447C0.319953 66.5864 -0.000116783 65.387 2.29136e-05 64.1663V26.0157C-0.0031126 24.793 0.315603 23.5911 0.924143 22.5307C1.53268 21.4703 2.40961 20.5887 3.4668 19.9746L36.5268 0.887994C37.5917 0.305368 38.7861 0 40 0C41.2139 0 42.4083 0.305368 43.4732 0.887994L76.53 19.9746C77.5848 20.5877 78.4603 21.4667 79.0692 22.5239C79.6781 23.5811 79.999 24.7795 80 25.9995V64.1663C79.9982 65.387 79.677 66.586 79.0682 67.6441C78.4595 68.7022 77.5844 69.5825 76.53 70.1977L43.4732 89.2843C42.4172 89.8935 41.2192 90.2136 40 90.2122Z" fill="#83CD29"/>
<path d="M33.73 51.3975C33.73 51.1412 33.8318 50.8953 34.0131 50.7141C34.1943 50.5328 34.4402 50.431 34.6966 50.431H38.972C39.2005 50.4317 39.4213 50.5133 39.5953 50.6614C39.7692 50.8094 39.8852 51.0143 39.9225 51.2397C40.5669 55.5925 42.5 57.7866 51.2411 57.7866C58.2036 57.7866 61.171 56.2111 61.171 52.5155C61.171 50.3859 60.3301 48.8039 49.5077 47.7439C40.4605 46.8482 34.8673 44.8442 34.8673 37.6142C34.8673 30.9449 40.4895 26.9658 49.9136 26.9658C60.504 26.9658 65.7461 30.642 66.4098 38.5292C66.4199 38.6609 66.403 38.7933 66.36 38.9182C66.317 39.043 66.2488 39.1578 66.1598 39.2553C66.0707 39.3528 65.9626 39.431 65.8421 39.4851C65.7217 39.5393 65.5914 39.5681 65.4593 39.5699H61.1549C60.9389 39.5669 60.7302 39.4916 60.562 39.3562C60.3938 39.2207 60.2759 39.0328 60.227 38.8224C59.1992 34.2441 56.6829 32.7814 49.9168 32.7814C42.3131 32.7814 41.4303 35.4298 41.4303 37.4145C41.4303 39.818 42.4742 40.5204 52.7392 41.8768C62.8979 43.2203 67.7243 45.1213 67.7243 52.261C67.7243 59.4652 61.7187 63.5892 51.2443 63.5892C36.7618 63.6086 33.73 56.9682 33.73 51.3975Z" fill="#83CD29"/>
</svg>
