<svg width="80" height="70" viewBox="0 0 80 70" fill="none" xmlns="http://www.w3.org/2000/svg">
<path d="M47.1439 34.6022C47.1439 30.7771 43.9458 27.6758 40.0002 27.6758C36.0551 27.6758 32.8564 30.7771 32.8564 34.6022C32.8564 38.4278 36.0551 41.5289 40.0002 41.5289C43.9458 41.5289 47.1439 38.4278 47.1439 34.6022Z" fill="#53C1DE"/>
<path fill-rule="evenodd" clip-rule="evenodd" d="M63.2011 21.7432C64.7096 15.7994 66.6059 4.77728 59.9211 1.04042C53.2675 -2.68014 44.6091 4.44914 40.0371 8.72848C35.4784 4.49178 26.5768 -2.60702 19.8977 1.1417C13.2467 4.87474 15.2977 15.7141 16.8397 21.6952C10.6355 23.4037 0 27.0837 0 34.6024C0 42.0997 10.6244 46.1035 16.7919 47.8104C15.2442 53.8245 13.2959 64.5091 19.9554 68.2339C26.6595 71.9819 35.5333 65.052 40.1477 60.7259C44.7491 65.0304 53.3243 72.0056 59.9792 68.2704C66.6549 64.5235 64.9163 53.6491 63.3741 47.6333C69.3528 45.9227 80 42.0061 80 34.6024C80 27.156 69.3075 23.4461 63.2011 21.7432ZM62.4432 44.4453C61.4307 41.3376 60.064 38.0328 58.3923 34.6189C59.988 31.2856 61.3016 28.0235 62.2859 24.9357C66.7624 26.1941 76.5827 29.0701 76.5827 34.6024C76.5827 40.1867 67.1589 43.0899 62.4432 44.4453ZM58.2667 65.4027C53.3013 68.1893 45.9256 61.5189 42.5275 58.3491C44.7819 55.9584 47.0347 53.1792 49.2333 50.0931C53.1011 49.7605 56.7547 49.2165 60.0683 48.4739C61.1536 52.7291 63.2539 62.6035 58.2667 65.4027ZM21.663 65.3629C16.6971 62.5867 18.9669 53.0523 20.1055 48.6221C23.3822 49.3251 27.0096 49.8307 30.8864 50.1355C33.0995 53.1552 35.4176 55.9309 37.7536 58.3619C34.8675 61.0688 26.652 68.152 21.663 65.3629ZM3.41731 34.6024C3.41731 28.9973 13.1789 26.1421 17.7574 24.8869C18.7587 28.044 20.0719 31.3451 21.6566 34.6832C20.0513 38.0709 18.7194 41.4243 17.7089 44.6187C13.3432 43.4069 3.41731 40.2109 3.41731 34.6024ZM21.6099 4.00944C26.596 1.21109 34.3325 8.02621 37.6424 11.0937C35.3184 13.5134 33.0216 16.2683 30.8275 19.2707C27.0651 19.6088 23.4633 20.1517 20.1522 20.8792C18.91 16.0552 16.6291 6.80477 21.6099 4.00944ZM51.6781 22.8723C54.2307 23.1845 56.6763 23.6 58.9725 24.1083C58.2832 26.2507 57.424 28.4909 56.412 30.7875C54.9451 28.0888 53.3704 25.4443 51.6781 22.8723ZM40.0381 13.4616C41.6144 15.1173 43.1931 16.9661 44.7461 18.972C41.596 18.8275 38.4408 18.8269 35.2907 18.9699C36.8451 16.9826 38.4373 15.1365 40.0381 13.4616ZM23.6173 30.7851C22.6221 28.4965 21.7706 26.2464 21.0753 24.0733C23.3578 23.5781 25.792 23.1733 28.328 22.8661C26.6309 25.4325 25.0589 28.076 23.6173 30.7851ZM28.4008 46.5752C25.7811 46.2917 23.31 45.9075 21.0282 45.4259C21.7345 43.2147 22.6047 40.916 23.6212 38.5781C25.0827 41.3155 26.6787 43.9845 28.4008 46.5752ZM40.1328 55.9773C38.5131 54.2827 36.8973 52.4083 35.3195 50.3923C38.4875 50.5128 41.6616 50.5131 44.8293 50.376C43.2715 52.4288 41.6984 54.3059 40.1328 55.9773ZM56.4445 38.4592C57.5139 40.8224 58.4152 43.1085 59.1312 45.2824C56.8115 45.7957 54.3072 46.2091 51.6685 46.516C53.3733 43.8952 54.9731 41.2096 56.4445 38.4592ZM47.3261 46.9176C42.4803 47.2533 37.6043 47.2496 32.7568 46.9451C30.0024 43.044 27.5504 38.9413 25.4339 34.6821C27.5403 30.4317 29.9744 26.3371 32.7157 22.4421C37.5667 22.0867 42.4475 22.0856 47.2984 22.4443C50.0163 26.3389 52.4467 30.4229 54.6019 34.6349C52.4723 38.8832 50.0253 42.9861 47.3261 46.9176ZM58.2141 3.91093C63.2016 6.7001 60.9816 16.606 59.892 20.9136C56.5731 20.1709 52.9688 19.6184 49.1955 19.2749C46.9971 16.2401 44.7195 13.4805 42.4331 11.092C45.7853 7.95842 53.2749 1.14904 58.2141 3.91093Z" fill="#53C1DE"/>
</svg>
