<svg width="80" height="73" viewBox="0 0 80 73" fill="none" xmlns="http://www.w3.org/2000/svg">
<path d="M75.4501 0.0599449C75.3461 0.115955 75.042 0.564041 74.714 1.14015C72.1215 5.78103 69.585 8.94163 66.6084 11.2621C63.8719 13.3905 60.4232 15.0868 56.4625 16.239C54.8622 16.7031 54.6942 16.5591 55.4303 15.3428C57.2226 12.3743 58.4629 8.91763 58.975 5.43697C59.175 4.0367 59.175 3.89267 58.927 3.78065C58.6869 3.67663 58.4549 3.80466 58.0868 4.26874C57.7667 4.66082 56.1984 6.08509 55.2863 6.80522C52.2777 9.18168 48.469 10.998 44.7243 11.8302C42.2438 12.3743 42.2438 12.3743 34.5623 12.4383C30.1375 12.4783 27.265 12.5343 26.7609 12.5903C22.8241 13.0464 19.5355 14.0386 16.1188 15.7909C13.3263 17.2232 11.2619 18.7195 8.98949 20.9599C2.34023 27.5372 -0.85238 36.6429 0.195818 46.0447C0.843941 51.8618 3.03636 57.2388 6.53302 61.6076C7.42919 62.7358 9.22953 64.5762 10.3577 65.5284C14.6546 69.1611 20.0556 71.4575 25.9127 72.1696C29.0973 72.5537 33.6902 72.4417 37.6029 71.8816C45.6044 70.7454 52.6938 67.5928 58.5749 62.5518C59.9031 61.4076 62.0876 59.2552 62.0876 59.0791C62.0876 58.9911 62.0636 58.9271 62.0396 58.9271C62.0075 58.9271 61.5675 59.1912 61.0554 59.5112C52.9578 64.6162 43.06 67.4087 33.0661 67.4087C31.2417 67.4087 28.7852 67.2567 27.329 67.0487C15.6387 65.4083 6.82108 56.6227 5.47682 45.2845C5.23678 43.2361 5.34079 40.1316 5.72487 38.0432C6.55703 33.4983 8.72544 29.1615 11.886 25.7048C15.2147 22.0721 19.8315 19.3916 24.6004 18.3194C26.6968 17.8473 27.521 17.7673 30.0815 17.7673C32.642 17.7673 33.4661 17.8473 35.5625 18.3194C41.1956 19.5837 46.3726 22.9683 49.9093 27.6892C52.6698 31.3779 54.3581 35.9308 54.8142 40.9477C54.9422 42.372 54.8702 44.7404 54.6622 45.7086C53.702 50.1174 50.7734 53.174 46.9647 53.7341C46.1565 53.8462 44.6283 53.7901 43.7641 53.6061C41.6357 53.166 39.8753 52.0858 38.7151 50.5255L38.3231 49.9894L37.4589 50.8376C36.5227 51.7738 35.5305 52.4779 34.3223 53.086C30.9377 54.7823 26.9289 54.7423 23.5362 52.966C22.368 52.3579 21.5359 51.7338 20.5197 50.7256C18.8074 49.0292 17.6951 46.9728 17.159 44.5244C16.983 43.7162 16.911 41.5638 17.031 40.6436C17.3911 37.9231 18.5753 35.5387 20.5597 33.5623C22.312 31.802 24.3204 30.7138 26.7929 30.1857C27.505 30.0256 27.8891 30.0176 31.9939 29.9856C35.8746 29.9536 36.4987 29.9696 37.0748 30.0816C38.9792 30.4657 40.4595 31.85 41.0196 33.7623C41.1396 34.1864 41.1636 34.8425 41.2036 39.5634C41.2596 45.4686 41.2436 45.2445 41.8197 46.4287C42.3638 47.541 43.364 48.3011 44.6283 48.5652C46.6686 49.0052 48.333 48.1971 49.2531 46.3247C49.8052 45.1965 49.9413 44.5804 49.9813 42.8441C50.0613 39.7315 49.4212 36.8989 47.9649 33.9144C46.9327 31.818 45.7245 30.1617 43.9481 28.4413C41.4196 25.9769 38.4591 24.3045 35.0904 23.4404C33.5381 23.0403 32.546 22.9123 30.7216 22.8643C28.1771 22.8003 26.2728 23.0723 23.9203 23.8485C22.6161 24.2805 20.4237 25.3447 19.3194 26.0809C15.4227 28.6814 12.5902 32.4901 11.2539 36.9229C10.5018 39.4194 10.2297 42.252 10.5098 44.6844C11.0139 49.0212 13.1183 53.11 16.4949 56.3266C18.1592 57.9109 19.8475 59.0711 22.04 60.1353C25.6006 61.8717 28.8413 62.4558 34.2423 62.3358C39.0512 62.2317 42.6199 61.7036 46.7647 60.4874C59.8071 56.6387 70.8572 47.0049 76.2823 34.7465C78.6987 29.2815 79.8349 24.1205 79.987 17.9193C80.139 11.4461 78.9628 5.81304 76.4263 0.964116C75.9462 0.0439418 75.7862 -0.108087 75.4501 0.0599449Z" fill="#5C2D91"/>
<path d="M27.745 34.9705C25.0645 35.4506 22.8401 37.4909 22.0639 40.1635C21.9039 40.7236 21.8799 40.9716 21.8799 42.1638C21.8879 43.4361 21.9039 43.5641 22.1119 44.2042C22.56 45.5565 23.1201 46.4446 24.1363 47.4128C26.6328 49.7973 30.4575 50.0373 33.3301 48.0049C33.9702 47.5489 34.9304 46.5167 35.3064 45.8765C35.6985 45.2124 36.0346 44.3242 36.1946 43.5481C36.2986 43.036 36.3226 42.2759 36.3226 39.0112V35.0905L36.1466 34.9705C35.9866 34.8584 35.4825 34.8424 32.1618 34.8504C29.2973 34.8584 28.2091 34.8824 27.745 34.9705Z" fill="#5C2D91"/>
</svg>
