<svg width="60" height="60" viewBox="0 0 60 60" fill="none" xmlns="http://www.w3.org/2000/svg">
<path d="M6.42864 40.7139L36.4286 40.7139C38.7956 40.7139 40.7144 38.7951 40.7144 36.4282L40.7144 6.42815C40.7144 4.06121 38.7956 2.14244 36.4286 2.14244L6.42864 2.14244C4.0617 2.14244 2.14293 4.06121 2.14293 6.42815L2.14293 36.4282C2.14293 38.7951 4.0617 40.7139 6.42864 40.7139Z" stroke="white" stroke-width="4" stroke-linecap="round" stroke-linejoin="round"/>
<path d="M51.4286 20.1426L54.7715 21.214C55.3108 21.3885 55.8101 21.6683 56.2406 22.0372C56.671 22.406 57.024 22.8566 57.2791 23.3628C57.5342 23.8691 57.6864 24.4209 57.7267 24.9863C57.7671 25.5517 57.6949 26.1195 57.5143 26.6569L48.1715 54.8997C47.8184 55.9791 47.0515 56.8741 46.039 57.3884C45.0265 57.9027 43.8513 57.9941 42.7715 57.6426L23.8286 51.4283" stroke="white" stroke-width="4" stroke-linecap="round" stroke-linejoin="round"/>
<path d="M2.14307 30H40.7145" stroke="white" stroke-width="4" stroke-linecap="round" stroke-linejoin="round"/>
</svg>
