<svg width="64" height="64" viewBox="0 0 64 64" fill="none" xmlns="http://www.w3.org/2000/svg">
<path d="M23.7143 37.4287H4.28571C3.02335 37.4287 2 38.4521 2 39.7144V59.143C2 60.4054 3.02335 61.4287 4.28571 61.4287H23.7143C24.9767 61.4287 26 60.4054 26 59.143V39.7144C26 38.4521 24.9767 37.4287 23.7143 37.4287Z" stroke="white" stroke-width="4" stroke-linecap="round" stroke-linejoin="round"/>
<path d="M59.143 37.4287H39.7144C38.4521 37.4287 37.4287 38.4521 37.4287 39.7144V59.143C37.4287 60.4054 38.4521 61.4287 39.7144 61.4287H59.143C60.4054 61.4287 61.4287 60.4054 61.4287 59.143V39.7144C61.4287 38.4521 60.4054 37.4287 59.143 37.4287Z" stroke="white" stroke-width="4" stroke-linecap="round" stroke-linejoin="round"/>
<path d="M41.4516 2H22.023C20.7607 2 19.7373 3.02335 19.7373 4.28571V23.7143C19.7373 24.9767 20.7607 26 22.023 26H41.4516C42.714 26 43.7373 24.9767 43.7373 23.7143V4.28571C43.7373 3.02335 42.714 2 41.4516 2Z" stroke="white" stroke-width="4" stroke-linecap="round" stroke-linejoin="round"/>
</svg>
